<?xml version="1.0" encoding="utf-8"?>
<svg viewBox="43.546 94.842 102.244 102.244" xmlns="http://www.w3.org/2000/svg">
  <path d="M88.43044,270.1463c0,8.8083 7.16346,15.97559 15.97176,15.97559c8.81214,0 15.97943,-7.16729 15.97943,-15.97559v-7.45485h30.88657c8.8083,0 15.97559,-7.16857 15.97559,-15.97559c0,-8.81214 -7.16729,-15.97559 -15.97559,-15.97559h-30.88657v-14.91098h7.45613c8.80702,0 15.97559,-7.16346 15.97559,-15.97559c0,-8.81214 -7.16857,-15.97559 -15.97559,-15.97559c-8.81214,0 -15.97559,7.1724 -15.97559,15.97559v7.45485h-30.88657c-8.81214,0 -15.97559,7.16346 -15.97559,15.97559c0,8.81214 7.16346,15.97559 15.97559,15.97559h30.88657v14.91098h-7.45613c-8.81214,0.00383 -15.97559,7.1724 -15.97559,15.97559zM127.83776,207.30855h-7.45613v-7.45485c0,-4.1102 3.34465,-7.45485 7.45613,-7.45485c4.1102,0 7.45485,3.34465 7.45485,7.45485c0,4.1102 -3.34465,7.45485 -7.45485,7.45485zM73.52074,223.28414c0,-4.1102 3.34465,-7.45485 7.45485,-7.45485h30.88657v14.91098h-30.88657c-4.1102,0 -7.45485,-3.34465 -7.45485,-7.45613zM151.2682,254.17071h-30.88657v-14.91098h30.88657c4.1102,0 7.45485,3.34465 7.45485,7.45613c0,4.1102 -3.34465,7.45485 -7.45485,7.45485zM96.95119,270.1463c0,-4.10637 3.34465,-7.45102 7.45485,-7.45485h7.45613v7.45485c0,4.1102 -3.34465,7.45485 -7.45996,7.45485c-4.1102,0 -7.45102,-3.34465 -7.45102,-7.45485z" data-paper-data="{&quot;isPathIcon&quot;:true}" transform="matrix(1, 0, 0, 1, -21.453541, -89.035805)"/>
</svg>