<?xml version="1.0" encoding="utf-8"?>
<svg viewBox="43.546 94.842 420 102.244" xmlns="http://www.w3.org/2000/svg">
  <g fill="#655242" fill-rule="none" stroke="none" stroke-width="1" stroke-linecap="butt" stroke-linejoin="miter" stroke-miterlimit="10" stroke-dasharray="" stroke-dashoffset="0" font-family="none" font-weight="none" font-size="none" text-anchor="none" style="mix-blend-mode: normal" transform="matrix(1, 0, 0, 1, -21.453541, -89.035805)">
    <g data-paper-data="{&quot;isGlobalGroup&quot;:true,&quot;bounds&quot;:{&quot;x&quot;:65,&quot;y&quot;:183.87810252328177,&quot;width&quot;:420,&quot;height&quot;:102.24379495343646}}">
      <g data-paper-data="{&quot;isSecondaryText&quot;:true}" fill-rule="nonzero">
        <path d="M215.84493,279.86443h6.01744l0.88742,-5.90804h5.15434l0.69292,-4.63161h-5.15434l0.17019,-1.16702h5.40962l0.70507,-4.75317h-11.42707z" data-paper-data="{&quot;glyphName&quot;:&quot;F&quot;,&quot;glyphIndex&quot;:0,&quot;firstGlyphOfWord&quot;:true,&quot;word&quot;:1}"/>
        <path d="M254.31109,263.40459h-6.0296l-2.4556,16.45984h10.77062l0.7537,-5.02062h-4.75317z" data-paper-data="{&quot;glyphName&quot;:&quot;L&quot;,&quot;glyphIndex&quot;:1,&quot;word&quot;:1}"/>
        <path d="M276.63309,274.5399c-0.53488,3.58615 1.33721,5.56766 5.98098,5.56766c4.64377,0 7.13584,-1.9815 7.67072,-5.56766l0.87526,-5.79863c0.52273,-3.56184 -1.37368,-5.57981 -6.01744,-5.57981c-4.63161,0 -7.11153,2.01797 -7.64641,5.57981zM283.68383,268.25501c0.06078,-0.37685 0.32822,-0.69292 0.80233,-0.69292c0.53488,0 0.69292,0.31607 0.63214,0.69292l-1.00899,6.7833c-0.06078,0.37685 -0.36469,0.69292 -0.8388,0.69292c-0.53488,0 -0.6686,-0.31607 -0.60782,-0.69292z" data-paper-data="{&quot;glyphName&quot;:&quot;O&quot;,&quot;glyphIndex&quot;:2,&quot;word&quot;:1}"/>
        <path d="M330.42922,263.40459l-2.22463,10.52749l0.63214,-10.2722h-5.28806l-2.32188,10.2722l0.80233,-10.52749h-6.43076v16.45984h7.51269l1.62896,-6.52802l-0.30391,6.52802h7.51269l4.92336,-16.45984z" data-paper-data="{&quot;glyphName&quot;:&quot;W&quot;,&quot;glyphIndex&quot;:3,&quot;lastGlyphOfWord&quot;:true,&quot;word&quot;:1}"/>
      </g>
      <g data-paper-data="{&quot;isPrimaryText&quot;:true}" fill-rule="nonzero">
        <path d="M242.3232,191.11452v9.77659h-16.70168v47.25354h-9.77659v-47.25354h-16.78315v-9.77659h16.78315h9.77659z" data-paper-data="{&quot;glyphName&quot;:&quot;T&quot;,&quot;glyphIndex&quot;:0,&quot;firstGlyphOfWord&quot;:true,&quot;word&quot;:1}"/>
        <path d="M297.08571,211.56389c0,2.06395 -0.28515,4.03285 -0.85545,5.90669c-0.5703,1.87385 -1.35786,3.59833 -2.36268,5.17345c-1.00482,1.57512 -2.22689,3.00087 -3.66622,4.27726c-1.43933,1.27639 -3.02803,2.32194 -4.76609,3.13666l11.65044,18.0867h-11.65044l-10.3469,-16.04991h-6.68067l3.99211,-9.77659h4.23652c2.93298,0 5.4586,-1.05913 7.57686,-3.17739c0.97766,-1.03197 1.73806,-2.19973 2.28121,-3.50328c0.54314,-1.30355 0.81472,-2.66141 0.81472,-4.07358c0,-1.41217 -0.27157,-2.77004 -0.81472,-4.07358c-0.54314,-1.30355 -1.30355,-2.44415 -2.28121,-3.42181c-2.11826,-2.11826 -4.64388,-3.17739 -7.57686,-3.17739h-11.56897v5.37713v16.04991v9.77659v16.04991h-9.77659v-16.04991v-25.8265v-15.15372h21.34556c2.82435,0 5.47218,0.54314 7.94348,1.62943c2.47131,1.08629 4.6303,2.55278 6.47699,4.39947c1.84669,1.84669 3.31318,4.00569 4.39947,6.47699c1.08629,2.47131 1.62943,5.11913 1.62943,7.94348z" data-paper-data="{&quot;glyphName&quot;:&quot;R&quot;,&quot;glyphIndex&quot;:1,&quot;word&quot;:1}"/>
        <path d="M345.33049,191.11452l25.74503,57.03013h-10.75425l-4.39947,-9.77659v0l-4.39947,-9.77659v0l-11.56897,-25.58209l-11.56897,25.58209h14.82783l4.39947,9.77659h-23.62677l-4.39947,9.77659h-10.75425l25.74503,-57.03013z" data-paper-data="{&quot;glyphName&quot;:&quot;A&quot;,&quot;glyphIndex&quot;:2,&quot;word&quot;:1}"/>
        <path d="M427.54893,240.48632c-2.71572,2.71572 -5.86596,4.84756 -9.45071,6.39552c-3.58475,1.54796 -7.44107,2.32194 -11.56897,2.32194c-4.07358,0 -7.91633,-0.77398 -11.52823,-2.32194c-3.61191,-1.54796 -6.76214,-3.66622 -9.45071,-6.35479c-2.68856,-2.68856 -4.80683,-5.8388 -6.35479,-9.45071c-1.54796,-3.61191 -2.32194,-7.45465 -2.32194,-11.52823c0,-4.07358 0.77398,-7.91633 2.32194,-11.52823c1.54796,-3.61191 3.66622,-6.76214 6.35479,-9.45071c2.68856,-2.68856 5.8388,-4.80683 9.45071,-6.35479c3.61191,-1.54796 7.45465,-2.32194 11.52823,-2.32194c4.1279,0 7.98422,0.77398 11.56897,2.32194c3.58475,1.54796 6.73499,3.6798 9.45071,6.39552l-6.92509,6.92509c-1.901,-1.901 -4.04642,-3.35391 -6.43626,-4.35873c-2.38983,-1.00482 -4.94261,-1.50722 -7.65833,-1.50722c-2.66141,0 -5.18703,0.50241 -7.57686,1.50722c-2.38983,1.00482 -4.53525,2.45773 -6.43626,4.35873c-1.901,1.901 -3.35391,4.04642 -4.35873,6.43626c-1.00482,2.38983 -1.50722,4.91545 -1.50722,7.57686c0,2.66141 0.50241,5.20061 1.50722,7.6176c1.00482,2.41699 2.45773,4.57599 4.35873,6.47699c1.901,1.901 4.04642,3.34034 6.43626,4.318c2.38983,0.97766 4.91545,1.46649 7.57686,1.46649c2.71572,0 5.2685,-0.48883 7.65833,-1.46649c2.38983,-0.97766 4.53525,-2.41699 6.43626,-4.318z" data-paper-data="{&quot;glyphName&quot;:&quot;C&quot;,&quot;glyphIndex&quot;:3,&quot;word&quot;:1}"/>
        <path d="M485,248.30759h-13.85018l-21.67145,-21.67145v21.50851h-9.77659v-56.94866h9.77659v21.58998l21.50851,-21.50851h13.85018l-28.4336,28.4336z" data-paper-data="{&quot;glyphName&quot;:&quot;K&quot;,&quot;glyphIndex&quot;:4,&quot;lastGlyphOfWord&quot;:true,&quot;word&quot;:1}"/>
      </g>
      <g data-paper-data="{&quot;isIcon&quot;:&quot;true&quot;,&quot;iconType&quot;:&quot;icon&quot;,&quot;rawIconId&quot;:&quot;1574636&quot;,&quot;selectedEffects&quot;:{&quot;container&quot;:&quot;&quot;,&quot;transformation&quot;:&quot;&quot;,&quot;pattern&quot;:&quot;&quot;},&quot;isDetailed&quot;:false,&quot;fillRule&quot;:&quot;evenodd&quot;,&quot;bounds&quot;:{&quot;x&quot;:65,&quot;y&quot;:183.87810252328177,&quot;width&quot;:102.24379495343646,&quot;height&quot;:102.24379495343646},&quot;iconStyle&quot;:&quot;standalone&quot;,&quot;suitableAsStandaloneIcon&quot;:true}" fill-rule="evenodd">
        <path d="M88.43044,270.1463c0,8.8083 7.16346,15.97559 15.97176,15.97559c8.81214,0 15.97943,-7.16729 15.97943,-15.97559v-7.45485h30.88657c8.8083,0 15.97559,-7.16857 15.97559,-15.97559c0,-8.81214 -7.16729,-15.97559 -15.97559,-15.97559h-30.88657v-14.91098h7.45613c8.80702,0 15.97559,-7.16346 15.97559,-15.97559c0,-8.81214 -7.16857,-15.97559 -15.97559,-15.97559c-8.81214,0 -15.97559,7.1724 -15.97559,15.97559v7.45485h-30.88657c-8.81214,0 -15.97559,7.16346 -15.97559,15.97559c0,8.81214 7.16346,15.97559 15.97559,15.97559h30.88657v14.91098h-7.45613c-8.81214,0.00383 -15.97559,7.1724 -15.97559,15.97559zM127.83776,207.30855h-7.45613v-7.45485c0,-4.1102 3.34465,-7.45485 7.45613,-7.45485c4.1102,0 7.45485,3.34465 7.45485,7.45485c0,4.1102 -3.34465,7.45485 -7.45485,7.45485zM73.52074,223.28414c0,-4.1102 3.34465,-7.45485 7.45485,-7.45485h30.88657v14.91098h-30.88657c-4.1102,0 -7.45485,-3.34465 -7.45485,-7.45613zM151.2682,254.17071h-30.88657v-14.91098h30.88657c4.1102,0 7.45485,3.34465 7.45485,7.45613c0,4.1102 -3.34465,7.45485 -7.45485,7.45485zM96.95119,270.1463c0,-4.10637 3.34465,-7.45102 7.45485,-7.45485h7.45613v7.45485c0,4.1102 -3.34465,7.45485 -7.45996,7.45485c-4.1102,0 -7.45102,-3.34465 -7.45102,-7.45485z" data-paper-data="{&quot;isPathIcon&quot;:true}"/>
      </g>
    </g>
  </g>
</svg>