<?xml version="1.0" standalone="no"?>
<!DOCTYPE svg PUBLIC "-//W3C//DTD SVG 20010904//EN"
 "http://www.w3.org/TR/2001/REC-SVG-20010904/DTD/svg10.dtd">
<svg version="1.0" xmlns="http://www.w3.org/2000/svg"
 width="700.000000pt" height="700.000000pt" viewBox="0 0 700.000000 700.000000"
 preserveAspectRatio="xMidYMid meet">
<metadata>
Created by potrace 1.14, written by Peter Selinger 2001-2017
</metadata>
<g transform="translate(0.000000,700.000000) scale(0.100000,-0.100000)"
fill="#000000" stroke="none">
<path d="M4095 6979 c-374 -76 -674 -326 -810 -674 -29 -72 -37 -101 -61 -210
-4 -16 -9 -178 -11 -360 -3 -181 -7 -332 -9 -335 -3 -2 -508 -5 -1122 -6 -614
-1 -1128 -5 -1142 -8 -14 -3 -38 -8 -55 -11 -139 -21 -328 -107 -470 -214 -11
-9 -54 -50 -96 -92 -139 -139 -229 -295 -281 -484 -28 -105 -33 -148 -32 -285
0 -149 6 -189 39 -306 100 -345 379 -628 723 -734 54 -16 120 -32 147 -36 28
-4 59 -8 70 -10 11 -1 516 -3 1123 -3 l1102 -1 0 -510 0 -510 -22 0 c-456 -5
-630 -9 -658 -14 -203 -40 -353 -106 -500 -219 -274 -212 -431 -539 -424 -882
2 -79 11 -172 18 -184 2 -3 7 -23 10 -44 26 -163 164 -406 309 -544 136 -130
350 -243 525 -278 12 -3 34 -8 50 -11 15 -3 86 -7 157 -9 120 -3 150 0 300 30
12 3 45 13 75 23 350 121 612 407 712 777 19 73 22 111 26 420 2 187 6 342 8
344 3 3 507 5 1122 6 614 0 1126 4 1137 8 11 4 34 9 50 11 54 7 152 36 224 66
323 138 565 424 642 760 24 105 32 304 17 411 -45 313 -251 618 -527 778 -83
49 -205 100 -276 117 -141 33 -170 34 -1287 34 l-1108 0 0 510 0 510 23 0 c12
1 157 2 322 4 165 2 309 6 320 9 11 2 40 8 65 12 61 10 180 50 249 82 138 66
307 201 386 308 17 22 33 42 36 45 16 13 88 143 117 210 176 418 83 883 -242
1205 -151 149 -329 245 -540 292 -108 23 -321 25 -431 2z m362 -588 c166 -53
293 -189 337 -358 46 -175 -4 -355 -134 -485 -37 -37 -78 -72 -91 -78 -13 -5
-31 -14 -39 -19 -17 -10 -55 -26 -85 -36 -42 -13 -149 -19 -395 -19 l-255 0
-2 287 c-1 315 3 350 59 461 60 120 205 230 341 261 72 16 190 10 264 -14z
m-1249 -2090 l2 -511 -1082 0 c-1192 1 -1150 -2 -1272 63 -223 117 -330 398
-239 630 69 176 231 302 418 325 32 4 534 6 1115 5 l1055 -1 3 -511z m2810
-1106 c185 -44 332 -186 382 -373 16 -61 19 -162 6 -230 -13 -70 -68 -175
-123 -237 -63 -72 -194 -144 -288 -159 -29 -5 -1831 -10 -2162 -6 l-43 0 0
510 0 510 1083 0 c915 0 1092 -3 1145 -15z m-2815 -1594 c15 -2 6 -556 -9
-623 -42 -179 -197 -336 -373 -378 -114 -27 -210 -19 -321 26 -60 25 -149 87
-176 124 -7 8 -22 26 -34 40 -33 36 -78 137 -90 200 -44 231 67 458 276 561
92 46 168 54 460 52 142 0 263 -2 267 -2z"/>
</g>
</svg>
